# xmcd CD Database Entry
#
# Track frame offsets:
# 150
# 24577
# 47361
# 66511
# 87225
# 106822
# 126887
# 151276
# 176423
# 201150
# 230225
# 254099
# 279116
#
# Disc length: 3992 seconds
#
# Revision: 6
# Processed by: cddbd v1.4PL0 Copyright (c) Steve Scherf et al.
# Submitted via: tcd 2.0b
#
DISCID=b10f960d
DTITLE=MISIA - Kiss In The Sky
DYEAR=1900
DGENRE=Jazz
TTITLE0=nemurenu yoru wa kimi no sei
TTITLE1=over bit
TTITLE2=Destiny's rule
TTITLE3=LALIA
TTITLE4=Koi-Uta
TTITLE5=Don't stop music !
TTITLE6=Fly away
TTITLE7=Always
TTITLE8=Kaze ni fukarete
TTITLE9=hatenaku tsuduku Story
TTITLE10=Shining Ster
TTITLE11=Taiyou ga iru kara
TTITLE12=Tobikata wo wasureta chiisana Tori
EXTD=ID3G: 8
EXTT0=
EXTT1=
EXTT2=
EXTT3=
EXTT4=
EXTT5=
EXTT6=
EXTT7=
EXTT8=
EXTT9=
EXTT10=
EXTT11=
EXTT12=
PLAYORDER=
